<svg data-v-fde0c5aa="" xmlns="http://www.w3.org/2000/svg" viewBox="0 0 300 300" class="iconAboveSlogan"><!----><defs data-v-fde0c5aa=""><!----></defs><rect data-v-fde0c5aa="" fill="#106989" x="0" y="0" width="300px" height="300px" class="logo-background-square"></rect><defs data-v-fde0c5aa=""><!----></defs><g data-v-fde0c5aa="" id="f8c752d9-c954-4430-9500-20ca954c0016" fill="#E5D5E4" transform="matrix(8.19387048576284,0,0,8.19387048576284,14.47338638519589,137.77699045872737)"><path d="M1.27 12.84L2.10 4.03L5.07 4.03Q6.31 4.03 6.96 4.72L6.96 4.72Q7.53 5.33 7.45 6.22L7.45 6.22Q7.28 8.02 5.74 8.41L5.74 8.41Q6.47 8.55 6.86 9.11L6.86 9.11Q7.49 10.04 6.97 11.31L6.97 11.31Q6.61 12.22 5.56 12.63L5.56 12.63Q5.01 12.84 4.24 12.84L4.24 12.84L1.27 12.84ZM2.35 11.87L4.31 11.87Q5.98 11.87 6.13 10.39L6.13 10.39Q6.20 9.72 5.81 9.32Q5.42 8.92 4.59 8.92L4.59 8.92L2.63 8.92L2.35 11.87ZM3.00 4.98L2.72 7.97L4.66 7.97Q5.39 7.97 5.86 7.57Q6.33 7.17 6.40 6.47Q6.47 5.77 6.08 5.38Q5.70 4.98 4.94 4.98L4.94 4.98L3.00 4.98ZM12.89 9.18L12.89 9.18L14.83 12.84L13.55 12.84L11.83 9.24L10.44 9.24L10.11 12.84L9.11 12.84L9.94 4.03L12.70 4.03Q14.04 4.03 14.70 4.76L14.70 4.76Q15.32 5.46 15.22 6.55L15.22 6.55Q14.99 8.82 12.89 9.18ZM10.51 8.47L12.19 8.47Q13.09 8.47 13.60 7.99Q14.11 7.50 14.18 6.71Q14.25 5.92 13.85 5.45Q13.44 4.98 12.60 4.98L12.60 4.98L10.84 4.98L10.51 8.47ZM17.50 4.03L18.49 4.03L17.95 9.66Q17.84 10.89 18.33 11.44Q18.83 11.98 19.75 11.98Q20.66 11.98 21.27 11.44Q21.87 10.89 21.98 9.66L21.98 9.66L22.53 4.03L23.52 4.03L22.97 9.66Q22.82 11.31 21.92 12.15Q21.03 12.99 19.65 12.99Q18.27 12.99 17.54 12.15Q16.80 11.31 16.95 9.66L16.95 9.66L17.50 4.03ZM25.91 4.03L26.91 4.03L26.53 7.91L30.42 7.91L30.80 4.03L31.81 4.03L30.97 12.84L29.97 12.84L30.34 8.86L26.45 8.86L26.08 12.84L25.09 12.84L25.91 4.03Z"></path></g><defs data-v-fde0c5aa=""><!----></defs><g data-v-fde0c5aa="" id="f660de99-62eb-46b5-8758-2c5a15b9708e" stroke="none" fill="#E5D5E4" transform="matrix(1.2861834019134968,0,0,1.2861834019134968,85.69082499792486,32.025664380056426)"><path d="M94.9 17.3c-.3-.8-.8-1.4-1.5-1.8l-1.4-.7c.5-2.1 1.2-6.4-2-8.1-.6-.3-1.3-.5-1.9-.5-3.4 0-6.3 4.1-6.5 4.3 0 0 0 .1-.1.1l-2.6 4.9V9.4c0-.5-.4-.9-.9-.9H5.9c-.5 0-.9.4-.9.9V93c0 .5.4.9.9.9h52.8c.2 0 .3-.1.5-.1l19.3-14.6.1-.1c.1-.1.2-.3.2-.5V40.1l2-3.9 1.3-2.5 8-15.3c.3.1.4.5.2.8L82.7 34c-.5 1-.1 2.2.8 2.7.3.1.6.2.9.2.7 0 1.4-.4 1.8-1.1l8.4-16v-.1c.4-.7.5-1.6.3-2.4zm-12-5.9c.7-1 3-3.5 5-3.5.4 0 .8.1 1.1.3 2.5 1.3 1.3 5.7 1 6.7l-1 2-8 15.3-7-3.7 8.9-17.1zm-3.1 23.3L72.7 31l.5-1 7.1 3.7-.5 1zm-20 56.4l1.3-12.3 14.5.4-15.8 11.9zm17.4-13.6l-16.8-.4c-.4 0-.8.3-.9.8L58 92.2H6.7v-82h70.5v8.6l-5 9.7-1.4 2.5-14.1 27.2c0 .1-.1.2-.1.3l-1.4 13.1c0 .3.1.7.5.8.1.1.3.1.4.1.2 0 .4-.1.6-.2l9.9-8.6c.1-.1.1-.2.2-.3l10.4-20.1v34.2zm-11.9-15l-8.2 7.1 1.1-10.8 13.7-26.3 7.1 3.7-13.7 26.3zm27.8-43.6L84.7 35c-.1.2-.3.2-.4.1-.1-.1-.2-.2-.1-.4L91.9 20c.6-1.1.1-2.5-1-3.1l.3-.6 1.3.7c.3.2.6.5.7.8.1.4.1.8-.1 1.1z"></path><path d="M25.9 27.9c3.8 0 6.9-3.2 6.9-7.2s-3.1-7.2-6.9-7.2-6.9 3.3-6.9 7.3 3.1 7.1 6.9 7.1zm0-12.6c2.9 0 5.2 2.5 5.2 5.5s-2.3 5.5-5.2 5.5-5.2-2.5-5.2-5.5 2.3-5.5 5.2-5.5zM36 42.8c1.6 0 2.9-1.3 2.9-2.9v-2.6-.1c0-3.1-1.7-7.1-9.3-8.3-.1 0-.2 0-.3-.1-.2-.1-.5 0-.7.2L26 31l-2.6-2c-.2-.2-.5-.2-.7-.2-.1 0-.2 0-.3.1-7.7 1.3-9.4 5.4-9.3 8.5V40c0 1.6 1.3 2.9 2.9 2.9h20zm-10-7.5l.5 1.9-.5.9-.5-.8.5-2zm-11.3 4.6V38c0-.1.1-.3 0-.4v-.3c0-3.6 2.6-5.9 7.9-6.8l2.3 1.8-1.3 4.9c-.1.2 0 .5.1.7l1.4 2.3c.2.2.4.4.7.4.3 0 .6-.1.7-.4l1.5-2.3c.1-.2.2-.5.1-.7l-1.3-4.8 2.3-1.8c5.2.9 7.9 3.1 7.9 6.8V40c0 .7-.5 1.2-1.2 1.2H16c-.7-.1-1.3-.6-1.3-1.3zM42.8 24.8h23.7c.5 0 .9-.4.9-.9s-.4-.9-.9-.9H42.8c-.5 0-.9.4-.9.9s.4.9.9.9zM54.1 50.4H15c-.5 0-.9.4-.9.9s.4.9.9.9h39.1c.5 0 .9-.4.9-.9-.1-.5-.4-.9-.9-.9zM51.8 62.6H15c-.5 0-.9.4-.9.9s.4.9.9.9h36.8c.5 0 .9-.4.9-.9s-.4-.9-.9-.9zM35.8 74.8H15c-.5 0-.9.4-.9.9s.4.9.9.9h20.7c.5 0 .9-.4.9-.9s-.4-.9-.8-.9zM42.8 37.7h18.8c.5 0 .9-.4.9-.9s-.4-.9-.9-.9H42.8c-.5 0-.9.4-.9.9s.4.9.9.9z"></path></g><defs data-v-fde0c5aa=""><!----></defs><g data-v-fde0c5aa="" id="58d95f94-d406-41b5-8fac-8f44d1fd5e03" fill="#E5D5E4" transform="matrix(0.56161530161784,0,0,0.56161530161784,55.76657060493426,252.1766986770721)"><path d="M7.81 9.52C7.39 9.11 6.79 8.86 6.01 8.75C6.33 8.67 6.61 8.55 6.86 8.40C7.11 8.25 7.34 8.08 7.50 7.87C7.67 7.66 7.81 7.43 7.90 7.20C7.98 6.96 8.04 6.71 8.04 6.44C8.04 6.05 7.95 5.68 7.83 5.38C7.70 5.07 7.49 4.80 7.22 4.58C6.96 4.37 6.62 4.20 6.20 4.09C5.78 3.98 5.29 3.92 4.73 3.92L1.89 3.92L0.70 3.92L0.70 4.19C0.70 4.34 0.80 4.42 0.98 4.44L1.12 4.44C1.19 4.44 1.29 4.45 1.43 4.45C1.57 4.45 1.72 4.47 1.89 4.47L1.89 13.26C1.72 13.26 1.57 13.27 1.43 13.27C1.29 13.27 1.19 13.29 1.12 13.29L0.98 13.29C0.80 13.30 0.71 13.38 0.71 13.54L0.71 13.82L1.89 13.82L5.10 13.82C5.63 13.82 6.09 13.76 6.51 13.64C6.93 13.51 7.28 13.34 7.56 13.10C7.84 12.87 8.06 12.59 8.22 12.25C8.37 11.91 8.44 11.54 8.44 11.12C8.44 10.46 8.23 9.93 7.81 9.52ZM2.60 4.48L4.73 4.48C5.61 4.48 6.27 4.66 6.69 5.00C7.11 5.35 7.32 5.84 7.32 6.51C7.32 6.76 7.28 7.03 7.18 7.27C7.08 7.50 6.93 7.71 6.72 7.91C6.51 8.11 6.24 8.26 5.92 8.37C5.60 8.48 5.21 8.55 4.75 8.55L2.60 8.55ZM7.06 12.68C6.61 13.06 5.95 13.24 5.08 13.24L2.60 13.24L2.60 9.07L5.10 9.07C5.52 9.07 5.88 9.11 6.20 9.21C6.52 9.31 6.80 9.45 7.03 9.62C7.25 9.80 7.42 10.00 7.55 10.25C7.66 10.50 7.73 10.79 7.73 11.10C7.73 11.79 7.50 12.31 7.06 12.68ZM23.44 13.29L23.37 13.29L23.25 13.29C23.21 13.29 23.14 13.27 23.04 13.27C22.95 13.27 22.83 13.26 22.71 13.26L22.71 6.85L22.04 6.86L21.03 6.86L21.03 7.13C21.03 7.28 21.13 7.36 21.31 7.38L21.38 7.38C21.41 7.38 21.45 7.39 21.49 7.39L21.70 7.39C21.80 7.39 21.91 7.41 22.04 7.41L22.04 12.08C21.73 12.49 21.36 12.81 20.97 13.05C20.58 13.27 20.16 13.40 19.71 13.40C19.10 13.40 18.63 13.20 18.34 12.84C18.05 12.46 17.89 11.96 17.89 11.30L17.89 6.85L17.22 6.86L16.21 6.86L16.21 7.13C16.21 7.28 16.31 7.36 16.49 7.38L16.56 7.38C16.59 7.38 16.63 7.39 16.67 7.39L16.88 7.39C16.98 7.39 17.09 7.41 17.22 7.41L17.22 11.30C17.22 11.70 17.28 12.07 17.37 12.39C17.47 12.71 17.61 12.99 17.81 13.22C18.00 13.44 18.23 13.62 18.52 13.75C18.82 13.87 19.15 13.93 19.54 13.93C20.06 13.93 20.54 13.80 20.96 13.57C21.38 13.33 21.76 13.01 22.08 12.60L22.13 13.64C22.13 13.76 22.22 13.82 22.34 13.82L22.71 13.82L23.72 13.82L23.72 13.54C23.72 13.38 23.62 13.30 23.44 13.29ZM32.91 4.89C32.97 4.94 33.04 4.98 33.11 5.01C33.18 5.04 33.26 5.07 33.35 5.07C33.43 5.07 33.52 5.04 33.59 5.01C33.66 4.98 33.73 4.94 33.78 4.89C33.84 4.83 33.89 4.76 33.92 4.69C33.95 4.62 33.98 4.54 33.98 4.45C33.98 4.37 33.95 4.30 33.92 4.21C33.89 4.14 33.84 4.07 33.78 4.02C33.73 3.96 33.66 3.91 33.59 3.88C33.52 3.85 33.43 3.84 33.35 3.84C33.26 3.84 33.18 3.85 33.11 3.88C33.04 3.91 32.97 3.96 32.91 4.02C32.86 4.07 32.82 4.14 32.79 4.21C32.76 4.28 32.73 4.37 32.73 4.45C32.73 4.54 32.76 4.62 32.79 4.69C32.82 4.76 32.86 4.83 32.91 4.89ZM34.41 13.29L34.34 13.29L34.23 13.29C34.19 13.29 34.12 13.27 34.02 13.27C33.92 13.27 33.81 13.26 33.68 13.26L33.68 6.85L33.01 6.85L32.00 6.85L32.00 7.13C32.00 7.28 32.10 7.36 32.28 7.38L32.35 7.38C32.38 7.38 32.42 7.39 32.47 7.39L32.68 7.39C32.77 7.39 32.89 7.41 33.01 7.41L33.01 13.26C32.86 13.26 32.72 13.29 32.61 13.29L32.37 13.29L32.28 13.29C32.10 13.30 32.00 13.38 32.00 13.54L32.00 13.82L33.01 13.82L33.68 13.82L34.69 13.82L34.69 13.54C34.69 13.38 34.59 13.30 34.41 13.29ZM45.35 13.29L45.28 13.29L45.16 13.29C45.12 13.29 45.05 13.27 44.95 13.27C44.86 13.27 44.74 13.26 44.62 13.26L44.62 3.63L43.95 3.63L42.94 3.63L42.94 3.91C42.94 4.06 43.04 4.14 43.22 4.16L43.29 4.16C43.32 4.16 43.36 4.17 43.40 4.17L43.61 4.17C43.71 4.17 43.82 4.19 43.95 4.19L43.95 13.26C43.79 13.26 43.65 13.29 43.54 13.29L43.30 13.29L43.22 13.29C43.04 13.30 42.94 13.38 42.94 13.54L42.94 13.82L43.95 13.82L44.62 13.82L45.63 13.82L45.63 13.54C45.63 13.38 45.53 13.30 45.35 13.29ZM60.45 13.54C60.45 13.38 60.37 13.30 60.19 13.29L60.12 13.29L60.02 13.29C59.98 13.29 59.91 13.27 59.82 13.27L59.51 13.27L59.51 3.63L58.86 3.63L57.85 3.63L57.85 3.91C57.85 4.06 57.95 4.14 58.13 4.16L58.20 4.16C58.23 4.16 58.25 4.17 58.30 4.17L58.52 4.17C58.62 4.17 58.73 4.19 58.86 4.19L58.86 7.76C58.60 7.42 58.31 7.17 57.96 7.00C57.61 6.82 57.20 6.73 56.73 6.73C56.24 6.73 55.80 6.83 55.43 7.01C55.05 7.20 54.74 7.46 54.47 7.78C54.21 8.11 54.03 8.50 53.89 8.93C53.75 9.37 53.69 9.84 53.69 10.35C53.69 11.54 53.93 12.43 54.40 13.02C54.88 13.61 55.55 13.90 56.41 13.90C56.92 13.90 57.39 13.79 57.81 13.54C58.23 13.29 58.58 12.95 58.88 12.53L58.95 13.64C58.97 13.76 59.04 13.82 59.15 13.82L59.51 13.82L60.45 13.82L60.45 13.61ZM58.86 12.01C58.56 12.43 58.23 12.77 57.85 13.01C57.47 13.24 57.06 13.37 56.60 13.37C55.89 13.37 55.33 13.13 54.95 12.64C54.57 12.15 54.38 11.38 54.38 10.35C54.38 9.88 54.42 9.48 54.53 9.10C54.64 8.72 54.80 8.39 55.01 8.12C55.22 7.85 55.47 7.63 55.78 7.48C56.08 7.32 56.45 7.25 56.85 7.25C57.26 7.25 57.64 7.34 57.96 7.50C58.28 7.67 58.59 7.95 58.86 8.34ZM87.07 13.29L86.97 13.29L86.79 13.29C86.70 13.29 86.62 13.27 86.53 13.27L83.57 9.53C83.48 9.42 83.37 9.32 83.26 9.25C83.69 9.21 84.08 9.11 84.43 8.96C84.78 8.81 85.06 8.61 85.32 8.37C85.55 8.13 85.75 7.85 85.88 7.55C86.00 7.24 86.07 6.89 86.07 6.51C86.07 5.66 85.79 5.03 85.23 4.58C84.67 4.14 83.82 3.92 82.67 3.92L80.26 3.92L79.09 3.92L79.09 4.19C79.09 4.34 79.17 4.42 79.35 4.44L79.49 4.44C79.56 4.44 79.66 4.45 79.80 4.45C79.94 4.45 80.09 4.47 80.26 4.47L80.26 13.26C80.09 13.26 79.94 13.27 79.80 13.27C79.66 13.27 79.56 13.29 79.49 13.29L79.35 13.29C79.17 13.30 79.07 13.38 79.07 13.54L79.07 13.82L80.26 13.82L80.98 13.82L82.15 13.82L82.15 13.54C82.15 13.38 82.05 13.30 81.87 13.29L81.73 13.29C81.66 13.29 81.56 13.27 81.42 13.27C81.28 13.27 81.14 13.26 80.98 13.26L80.98 9.34L82.15 9.34C82.35 9.34 82.49 9.35 82.57 9.39C82.66 9.44 82.74 9.52 82.82 9.62L86.00 13.64C86.06 13.71 86.10 13.75 86.16 13.78C86.21 13.80 86.28 13.82 86.35 13.82L86.42 13.82L86.97 13.82L87.33 13.82L87.33 13.54C87.33 13.38 87.25 13.30 87.07 13.29ZM82.57 8.81L80.98 8.81L80.98 4.48L82.67 4.48C83.55 4.48 84.22 4.66 84.69 5.00C85.15 5.33 85.37 5.87 85.37 6.57C85.37 6.92 85.32 7.21 85.19 7.49C85.06 7.77 84.87 7.99 84.63 8.19C84.39 8.39 84.10 8.55 83.75 8.65C83.40 8.75 83.01 8.81 82.57 8.81ZM98.52 6.73C98.03 6.73 97.58 6.83 97.19 7.00C96.80 7.17 96.47 7.41 96.21 7.71C95.94 8.02 95.73 8.39 95.59 8.81C95.45 9.23 95.37 9.69 95.37 10.19C95.37 10.78 95.45 11.31 95.61 11.77C95.76 12.24 95.97 12.61 96.25 12.94C96.53 13.26 96.87 13.50 97.26 13.66C97.65 13.83 98.08 13.90 98.56 13.90C98.83 13.90 99.09 13.89 99.34 13.83C99.60 13.78 99.85 13.71 100.07 13.62C100.30 13.54 100.51 13.44 100.69 13.31C100.87 13.19 101.02 13.06 101.14 12.92L100.95 12.70C100.93 12.66 100.87 12.63 100.81 12.63C100.77 12.63 100.69 12.66 100.59 12.74C100.49 12.82 100.35 12.91 100.17 13.01C100.00 13.10 99.78 13.17 99.53 13.26C99.27 13.34 98.97 13.38 98.62 13.38C98.22 13.38 97.87 13.31 97.55 13.17C97.23 13.03 96.96 12.84 96.74 12.57C96.52 12.31 96.35 11.97 96.22 11.58C96.10 11.19 96.04 10.71 96.04 10.19L96.04 10.07L101.07 10.07C101.14 10.07 101.18 10.05 101.21 10.01C101.23 9.97 101.26 9.90 101.26 9.80C101.26 9.31 101.19 8.88 101.05 8.50C100.91 8.12 100.73 7.78 100.48 7.53C100.24 7.28 99.95 7.08 99.61 6.94C99.27 6.80 98.91 6.73 98.52 6.73ZM98.53 7.24C98.85 7.24 99.13 7.29 99.40 7.41C99.67 7.52 99.89 7.67 100.07 7.88C100.25 8.09 100.41 8.33 100.51 8.62C100.60 8.92 100.66 9.25 100.66 9.63L96.07 9.63C96.11 9.27 96.19 8.93 96.32 8.64C96.45 8.34 96.61 8.09 96.82 7.88C97.03 7.67 97.29 7.52 97.57 7.41C97.85 7.29 98.17 7.24 98.53 7.24ZM114.04 11.06C113.93 10.86 113.79 10.71 113.61 10.57C113.43 10.43 113.22 10.32 112.99 10.23C112.77 10.15 112.52 10.05 112.28 9.98C112.04 9.91 111.80 9.83 111.57 9.76C111.34 9.69 111.13 9.59 110.95 9.49C110.77 9.39 110.63 9.27 110.52 9.13C110.40 8.99 110.35 8.81 110.35 8.58C110.35 8.40 110.38 8.23 110.46 8.08C110.54 7.92 110.66 7.77 110.81 7.64C110.95 7.52 111.13 7.43 111.34 7.36C111.55 7.29 111.78 7.25 112.03 7.25C112.39 7.25 112.76 7.31 113.13 7.43C113.15 7.60 113.16 7.77 113.18 7.92C113.19 8.08 113.19 8.19 113.20 8.27C113.22 8.36 113.22 8.43 113.22 8.44C113.23 8.67 113.33 8.78 113.53 8.78L113.86 8.78L113.86 7.11C113.13 6.86 112.52 6.75 112.01 6.75C111.66 6.75 111.34 6.80 111.06 6.90C110.78 7.00 110.53 7.14 110.33 7.31C110.14 7.48 109.98 7.69 109.87 7.91C109.76 8.13 109.72 8.37 109.72 8.62C109.72 8.92 109.77 9.16 109.89 9.35C110.00 9.55 110.14 9.70 110.32 9.84C110.50 9.98 110.70 10.09 110.94 10.18C111.16 10.26 111.40 10.35 111.65 10.42C111.89 10.49 112.13 10.57 112.36 10.64C112.59 10.71 112.80 10.81 112.98 10.92C113.16 11.03 113.32 11.16 113.43 11.31C113.54 11.47 113.60 11.65 113.60 11.89C113.60 12.10 113.55 12.29 113.48 12.49C113.40 12.68 113.29 12.84 113.13 12.98C112.98 13.12 112.80 13.23 112.57 13.31C112.35 13.40 112.10 13.44 111.80 13.44C111.27 13.44 110.82 13.37 110.45 13.22C110.43 13.03 110.42 12.87 110.40 12.71C110.39 12.56 110.39 12.43 110.38 12.35C110.36 12.26 110.36 12.19 110.36 12.18C110.35 11.96 110.25 11.84 110.05 11.84L109.72 11.84L109.72 13.54C110.39 13.79 111.08 13.93 111.78 13.93C112.17 13.93 112.50 13.87 112.81 13.76C113.12 13.65 113.37 13.50 113.58 13.30C113.79 13.10 113.95 12.89 114.06 12.63C114.17 12.36 114.23 12.08 114.23 11.77C114.23 11.49 114.16 11.26 114.04 11.06ZM129.28 13.29L129.21 13.29L129.09 13.29C129.05 13.29 128.98 13.27 128.88 13.27C128.79 13.27 128.67 13.26 128.55 13.26L128.55 6.85L127.88 6.86L126.87 6.86L126.87 7.13C126.87 7.28 126.97 7.36 127.15 7.38L127.22 7.38C127.25 7.38 127.29 7.39 127.33 7.39L127.54 7.39C127.64 7.39 127.75 7.41 127.88 7.41L127.88 12.08C127.57 12.49 127.20 12.81 126.81 13.05C126.42 13.27 126.00 13.40 125.55 13.40C124.94 13.40 124.47 13.20 124.18 12.84C123.89 12.46 123.73 11.96 123.73 11.30L123.73 6.85L123.06 6.86L122.05 6.86L122.05 7.13C122.05 7.28 122.15 7.36 122.33 7.38L122.40 7.38C122.43 7.38 122.47 7.39 122.51 7.39L122.72 7.39C122.82 7.39 122.93 7.41 123.06 7.41L123.06 11.30C123.06 11.70 123.12 12.07 123.21 12.39C123.31 12.71 123.45 12.99 123.65 13.22C123.84 13.44 124.07 13.62 124.36 13.75C124.66 13.87 124.99 13.93 125.38 13.93C125.90 13.93 126.38 13.80 126.80 13.57C127.22 13.33 127.60 13.01 127.92 12.60L127.97 13.64C127.97 13.76 128.06 13.82 128.18 13.82L128.55 13.82L129.56 13.82L129.56 13.54C129.56 13.38 129.46 13.30 129.28 13.29ZM148.65 13.29L148.57 13.29L148.47 13.29C148.43 13.29 148.36 13.27 148.26 13.27C148.16 13.27 148.04 13.26 147.91 13.26L147.91 9.37C147.91 8.95 147.85 8.57 147.76 8.25C147.66 7.92 147.52 7.64 147.32 7.42C147.13 7.20 146.89 7.03 146.61 6.92C146.33 6.80 146.03 6.75 145.68 6.75C145.45 6.75 145.19 6.78 144.97 6.85C144.75 6.92 144.54 7.01 144.34 7.15C144.14 7.29 143.96 7.46 143.81 7.67C143.65 7.88 143.54 8.13 143.46 8.43C143.35 7.90 143.15 7.48 142.84 7.18C142.53 6.89 142.13 6.75 141.62 6.75C141.40 6.75 141.19 6.76 140.99 6.83C140.80 6.89 140.62 6.99 140.43 7.10C140.27 7.21 140.10 7.36 139.94 7.52C139.79 7.67 139.65 7.84 139.51 8.04L139.45 7.03C139.44 6.92 139.37 6.86 139.24 6.86L138.88 6.86L137.87 6.86L137.87 7.13C137.87 7.28 137.96 7.36 138.14 7.38L138.22 7.38C138.25 7.38 138.28 7.39 138.32 7.39L138.53 7.39C138.63 7.39 138.75 7.41 138.88 7.41L138.88 13.26C138.71 13.26 138.57 13.29 138.46 13.29L138.24 13.29L138.14 13.29C137.96 13.30 137.87 13.38 137.87 13.54L137.87 13.82L138.88 13.82L139.54 13.82L140.55 13.82L140.55 13.54C140.55 13.38 140.46 13.30 140.28 13.29L140.20 13.29L140.10 13.29C140.06 13.29 139.99 13.27 139.89 13.27C139.79 13.27 139.66 13.26 139.54 13.26L139.54 8.55C139.79 8.15 140.08 7.84 140.41 7.62C140.73 7.39 141.08 7.28 141.46 7.28C141.97 7.28 142.37 7.45 142.63 7.81C142.90 8.18 143.04 8.69 143.04 9.37L143.04 13.82L143.71 13.82L143.71 13.82L144.72 13.82L144.72 13.54C144.72 13.38 144.62 13.30 144.44 13.29L144.37 13.29L144.26 13.29C144.21 13.29 144.14 13.27 144.05 13.27C143.95 13.27 143.84 13.26 143.71 13.26L143.71 9.37C143.71 9.02 143.75 8.72 143.85 8.46C143.95 8.19 144.09 7.97 144.26 7.80C144.42 7.63 144.62 7.49 144.84 7.41C145.07 7.32 145.31 7.28 145.54 7.28C146.09 7.28 146.51 7.46 146.80 7.81C147.10 8.18 147.25 8.68 147.25 9.37L147.25 13.82L147.91 13.82L148.92 13.82L148.92 13.54C148.92 13.38 148.83 13.30 148.65 13.29ZM160.19 6.73C159.70 6.73 159.25 6.83 158.86 7.00C158.47 7.17 158.14 7.41 157.88 7.71C157.61 8.02 157.40 8.39 157.26 8.81C157.12 9.23 157.04 9.69 157.04 10.19C157.04 10.78 157.12 11.31 157.28 11.77C157.43 12.24 157.64 12.61 157.92 12.94C158.20 13.26 158.54 13.50 158.93 13.66C159.32 13.83 159.75 13.90 160.23 13.90C160.50 13.90 160.76 13.89 161.01 13.83C161.27 13.78 161.52 13.71 161.74 13.62C161.97 13.54 162.18 13.44 162.36 13.31C162.54 13.19 162.69 13.06 162.81 12.92L162.62 12.70C162.60 12.66 162.54 12.63 162.48 12.63C162.44 12.63 162.36 12.66 162.26 12.74C162.16 12.82 162.02 12.91 161.84 13.01C161.67 13.10 161.45 13.17 161.20 13.26C160.94 13.34 160.64 13.38 160.29 13.38C159.89 13.38 159.54 13.31 159.22 13.17C158.90 13.03 158.63 12.84 158.41 12.57C158.19 12.31 158.02 11.97 157.89 11.58C157.77 11.19 157.71 10.71 157.71 10.19L157.71 10.07L162.74 10.07C162.81 10.07 162.85 10.05 162.88 10.01C162.90 9.97 162.93 9.90 162.93 9.80C162.93 9.31 162.86 8.88 162.72 8.50C162.58 8.12 162.40 7.78 162.15 7.53C161.91 7.28 161.62 7.08 161.28 6.94C160.94 6.80 160.58 6.73 160.19 6.73ZM160.20 7.24C160.52 7.24 160.80 7.29 161.07 7.41C161.34 7.52 161.56 7.67 161.74 7.88C161.92 8.09 162.08 8.33 162.18 8.62C162.27 8.92 162.33 9.25 162.33 9.63L157.74 9.63C157.78 9.27 157.86 8.93 157.99 8.64C158.12 8.34 158.28 8.09 158.49 7.88C158.70 7.67 158.96 7.52 159.24 7.41C159.52 7.29 159.84 7.24 160.20 7.24ZM175.71 11.06C175.60 10.86 175.46 10.71 175.28 10.57C175.10 10.43 174.89 10.32 174.66 10.23C174.44 10.15 174.19 10.05 173.95 9.98C173.71 9.91 173.47 9.83 173.24 9.76C173.01 9.69 172.80 9.59 172.62 9.49C172.44 9.39 172.30 9.27 172.19 9.13C172.07 8.99 172.02 8.81 172.02 8.58C172.02 8.40 172.05 8.23 172.13 8.08C172.21 7.92 172.33 7.77 172.48 7.64C172.62 7.52 172.80 7.43 173.01 7.36C173.22 7.29 173.45 7.25 173.70 7.25C174.06 7.25 174.43 7.31 174.80 7.43C174.82 7.60 174.83 7.77 174.85 7.92C174.86 8.08 174.86 8.19 174.87 8.27C174.89 8.36 174.89 8.43 174.89 8.44C174.90 8.67 175 8.78 175.20 8.78L175.53 8.78L175.53 7.11C174.80 6.86 174.19 6.75 173.68 6.75C173.33 6.75 173.01 6.80 172.73 6.90C172.45 7.00 172.20 7.14 172.00 7.31C171.81 7.48 171.65 7.69 171.54 7.91C171.43 8.13 171.39 8.37 171.39 8.62C171.39 8.92 171.44 9.16 171.56 9.35C171.67 9.55 171.81 9.70 171.99 9.84C172.17 9.98 172.37 10.09 172.61 10.18C172.83 10.26 173.07 10.35 173.32 10.42C173.56 10.49 173.80 10.57 174.03 10.64C174.26 10.71 174.47 10.81 174.65 10.92C174.83 11.03 174.99 11.16 175.10 11.31C175.21 11.47 175.27 11.65 175.27 11.89C175.27 12.10 175.22 12.29 175.15 12.49C175.07 12.68 174.96 12.84 174.80 12.98C174.65 13.12 174.47 13.23 174.24 13.31C174.02 13.40 173.77 13.44 173.47 13.44C172.94 13.44 172.49 13.37 172.12 13.22C172.10 13.03 172.09 12.87 172.07 12.71C172.06 12.56 172.06 12.43 172.05 12.35C172.03 12.26 172.03 12.19 172.03 12.18C172.02 11.96 171.92 11.84 171.72 11.84L171.39 11.84L171.39 13.54C172.06 13.79 172.75 13.93 173.45 13.93C173.84 13.93 174.17 13.87 174.48 13.76C174.79 13.65 175.04 13.50 175.25 13.30C175.46 13.10 175.62 12.89 175.73 12.63C175.84 12.36 175.90 12.08 175.90 11.77C175.90 11.49 175.83 11.26 175.71 11.06ZM202.83 3.92L202.12 3.92L200.76 3.92L200.76 4.19C200.76 4.34 200.86 4.42 201.04 4.44L201.21 4.44C201.31 4.44 201.45 4.45 201.61 4.45C201.78 4.45 201.95 4.47 202.12 4.47L202.12 10.04C202.12 10.50 202.05 10.92 201.91 11.33C201.77 11.73 201.57 12.08 201.31 12.38C201.04 12.67 200.73 12.89 200.35 13.06C199.98 13.23 199.56 13.31 199.08 13.31C198.60 13.31 198.17 13.23 197.79 13.06C197.41 12.89 197.09 12.66 196.84 12.36C196.57 12.07 196.39 11.72 196.25 11.33C196.11 10.93 196.04 10.50 196.04 10.04L196.04 4.47C196.21 4.47 196.38 4.45 196.55 4.45C196.71 4.45 196.85 4.44 196.95 4.44L197.12 4.44C197.30 4.42 197.40 4.34 197.40 4.19L197.40 3.92L196.04 3.92L195.33 3.92L194.15 3.92L194.15 4.19C194.15 4.34 194.24 4.42 194.42 4.44L194.56 4.44C194.63 4.44 194.73 4.45 194.87 4.45C195.01 4.45 195.16 4.47 195.33 4.47L195.33 10.04C195.33 10.58 195.41 11.09 195.58 11.56C195.75 12.04 196 12.46 196.32 12.81C196.64 13.16 197.05 13.44 197.51 13.64C197.97 13.83 198.51 13.93 199.08 13.93C199.65 13.93 200.17 13.83 200.63 13.64C201.10 13.44 201.50 13.16 201.82 12.81C202.15 12.46 202.40 12.04 202.57 11.56C202.73 11.09 202.83 10.58 202.83 10.04L202.83 4.47C203 4.47 203.14 4.45 203.28 4.45C203.42 4.45 203.53 4.44 203.60 4.44L203.73 4.44C203.91 4.42 204.01 4.34 204.01 4.19L204.01 3.92ZM219.27 13.29L219.20 13.29L219.09 13.29C219.04 13.29 218.97 13.27 218.88 13.27C218.78 13.27 218.67 13.26 218.54 13.26L218.54 9.37C218.54 8.96 218.48 8.60 218.39 8.27C218.29 7.95 218.15 7.67 217.95 7.45C217.76 7.22 217.52 7.06 217.22 6.93C216.93 6.80 216.59 6.75 216.22 6.75C215.70 6.75 215.22 6.87 214.80 7.11C214.38 7.36 214.02 7.67 213.70 8.08L213.64 7.03C213.63 6.92 213.56 6.86 213.43 6.86L213.07 6.86L212.06 6.86L212.06 7.13C212.06 7.28 212.14 7.36 212.32 7.38L212.41 7.38C212.44 7.38 212.46 7.39 212.51 7.39L212.72 7.39C212.81 7.39 212.94 7.41 213.07 7.41L213.07 13.26C212.90 13.26 212.76 13.29 212.65 13.29L212.42 13.29L212.32 13.29C212.14 13.30 212.06 13.38 212.06 13.54L212.06 13.82L213.07 13.82L213.72 13.82L214.73 13.82L214.73 13.54C214.73 13.38 214.65 13.30 214.47 13.29L214.38 13.29L214.28 13.29C214.24 13.29 214.17 13.27 214.07 13.27C213.98 13.27 213.85 13.26 213.72 13.26L213.72 8.60C214.03 8.19 214.38 7.87 214.77 7.63C215.17 7.39 215.59 7.28 216.05 7.28C216.66 7.28 217.13 7.46 217.42 7.83C217.71 8.20 217.87 8.71 217.87 9.37L217.87 13.82L218.54 13.82L219.55 13.82L219.55 13.54C219.55 13.38 219.45 13.30 219.27 13.29ZM230.05 13.93C230.34 13.93 230.62 13.86 230.90 13.75C231.17 13.64 231.39 13.48 231.57 13.29L231.39 12.98C231.35 12.94 231.32 12.92 231.28 12.92C231.25 12.92 231.20 12.94 231.14 12.99C231.08 13.05 231.01 13.09 230.93 13.15C230.85 13.20 230.73 13.26 230.61 13.31C230.48 13.37 230.36 13.38 230.19 13.38C230.05 13.38 229.91 13.36 229.80 13.31C229.68 13.27 229.59 13.20 229.50 13.12C229.42 13.03 229.35 12.92 229.29 12.78C229.24 12.64 229.22 12.49 229.22 12.29L229.22 7.57L231.42 7.57L231.42 7.07L229.22 7.07L229.22 4.41L228.90 4.41C228.84 4.41 228.82 4.44 228.79 4.47C228.76 4.49 228.73 4.54 228.73 4.58L228.56 7.07L227.37 7.15L227.37 7.41C227.37 7.46 227.39 7.49 227.42 7.52C227.44 7.55 227.50 7.57 227.56 7.57L228.55 7.57L228.55 12.33C228.55 12.88 228.68 13.27 228.94 13.54C229.21 13.80 229.57 13.93 230.05 13.93ZM240.72 4.89C240.77 4.94 240.84 4.98 240.91 5.01C240.98 5.04 241.07 5.07 241.15 5.07C241.23 5.07 241.32 5.04 241.39 5.01C241.46 4.98 241.53 4.94 241.58 4.89C241.64 4.83 241.70 4.76 241.72 4.69C241.75 4.62 241.78 4.54 241.78 4.45C241.78 4.37 241.75 4.30 241.72 4.21C241.70 4.14 241.64 4.07 241.58 4.02C241.53 3.96 241.46 3.91 241.39 3.88C241.32 3.85 241.23 3.84 241.15 3.84C241.07 3.84 240.98 3.85 240.91 3.88C240.84 3.91 240.77 3.96 240.72 4.02C240.66 4.07 240.62 4.14 240.59 4.21C240.56 4.28 240.53 4.37 240.53 4.45C240.53 4.54 240.56 4.62 240.59 4.69C240.62 4.76 240.66 4.83 240.72 4.89ZM242.21 13.29L242.14 13.29L242.03 13.29C241.99 13.29 241.92 13.27 241.82 13.27C241.72 13.27 241.61 13.26 241.49 13.26L241.49 6.85L240.81 6.85L239.81 6.85L239.81 7.13C239.81 7.28 239.90 7.36 240.09 7.38L240.16 7.38C240.18 7.38 240.23 7.39 240.27 7.39L240.48 7.39C240.58 7.39 240.69 7.41 240.81 7.41L240.81 13.26C240.66 13.26 240.52 13.29 240.41 13.29L240.17 13.29L240.09 13.29C239.90 13.30 239.81 13.38 239.81 13.54L239.81 13.82L240.81 13.82L241.49 13.82L242.49 13.82L242.49 13.54C242.49 13.38 242.40 13.30 242.21 13.29ZM253.15 13.29L253.08 13.29L252.97 13.29C252.92 13.29 252.85 13.27 252.76 13.27C252.66 13.27 252.55 13.26 252.42 13.26L252.42 3.63L251.75 3.63L250.74 3.63L250.74 3.91C250.74 4.06 250.84 4.14 251.02 4.16L251.09 4.16C251.12 4.16 251.16 4.17 251.20 4.17L251.41 4.17C251.51 4.17 251.62 4.19 251.75 4.19L251.75 13.26C251.59 13.26 251.45 13.29 251.34 13.29L251.10 13.29L251.02 13.29C250.84 13.30 250.74 13.38 250.74 13.54L250.74 13.82L251.75 13.82L252.42 13.82L253.43 13.82L253.43 13.54C253.43 13.38 253.33 13.30 253.15 13.29ZM281.76 4.44C281.95 4.42 282.04 4.34 282.04 4.19L282.04 3.92L280.87 3.92L280.14 3.92L278.96 3.92L278.96 4.19C278.96 4.34 279.06 4.42 279.24 4.44L279.37 4.44C279.44 4.44 279.55 4.45 279.69 4.45C279.83 4.45 279.97 4.47 280.14 4.47L280.14 8.53L273.94 8.53L273.94 4.47C274.11 4.47 274.26 4.45 274.40 4.45C274.54 4.45 274.64 4.44 274.71 4.44L274.85 4.44C275.03 4.42 275.11 4.34 275.11 4.19L275.11 3.92L273.94 3.92L273.22 3.92L272.03 3.92L272.03 4.19C272.03 4.34 272.13 4.42 272.31 4.44L272.45 4.44C272.52 4.44 272.62 4.45 272.76 4.45C272.90 4.45 273.06 4.47 273.22 4.47L273.22 13.26C273.06 13.26 272.90 13.27 272.76 13.27C272.62 13.27 272.52 13.29 272.45 13.29L272.31 13.29C272.13 13.30 272.03 13.38 272.03 13.54L272.03 13.82L273.22 13.82L273.94 13.82L275.11 13.82L275.11 13.54C275.11 13.38 275.03 13.30 274.85 13.29L274.71 13.29C274.64 13.29 274.54 13.27 274.40 13.27C274.26 13.27 274.11 13.26 273.94 13.26L273.94 9.07L280.14 9.07L280.14 13.26C279.97 13.26 279.83 13.27 279.69 13.27C279.55 13.27 279.44 13.29 279.37 13.29L279.24 13.29C279.06 13.30 278.96 13.38 278.96 13.54L278.96 13.82L280.14 13.82L280.87 13.82L282.04 13.82L282.04 13.54C282.04 13.38 281.95 13.30 281.76 13.29L281.64 13.29C281.57 13.29 281.46 13.27 281.32 13.27C281.18 13.27 281.04 13.26 280.87 13.26L280.87 4.47C281.04 4.47 281.18 4.45 281.32 4.45C281.46 4.45 281.57 4.44 281.64 4.44ZM291.30 4.89C291.35 4.94 291.42 4.98 291.49 5.01C291.56 5.04 291.65 5.07 291.73 5.07C291.82 5.07 291.90 5.04 291.97 5.01C292.04 4.98 292.11 4.94 292.17 4.89C292.22 4.83 292.28 4.76 292.31 4.69C292.33 4.62 292.36 4.54 292.36 4.45C292.36 4.37 292.33 4.30 292.31 4.21C292.28 4.14 292.22 4.07 292.17 4.02C292.11 3.96 292.04 3.91 291.97 3.88C291.90 3.85 291.82 3.84 291.73 3.84C291.65 3.84 291.56 3.85 291.49 3.88C291.42 3.91 291.35 3.96 291.30 4.02C291.24 4.07 291.20 4.14 291.17 4.21C291.14 4.28 291.12 4.37 291.12 4.45C291.12 4.54 291.14 4.62 291.17 4.69C291.20 4.76 291.24 4.83 291.30 4.89ZM292.80 13.29L292.73 13.29L292.61 13.29C292.57 13.29 292.50 13.27 292.40 13.27C292.31 13.27 292.19 13.26 292.07 13.26L292.07 6.85L291.40 6.85L290.39 6.85L290.39 7.13C290.39 7.28 290.49 7.36 290.67 7.38L290.74 7.38C290.77 7.38 290.81 7.39 290.85 7.39L291.06 7.39C291.16 7.39 291.27 7.41 291.40 7.41L291.40 13.26C291.24 13.26 291.10 13.29 290.99 13.29L290.75 13.29L290.67 13.29C290.49 13.30 290.39 13.38 290.39 13.54L290.39 13.82L291.40 13.82L292.07 13.82L293.08 13.82L293.08 13.54C293.08 13.38 292.98 13.30 292.80 13.29ZM305.86 6.80C305.68 6.76 305.49 6.73 305.28 6.73C304.74 6.73 304.28 6.89 303.90 7.21C303.52 7.53 303.23 7.98 303.00 8.54L302.95 7.07C302.95 6.99 302.92 6.93 302.89 6.90C302.86 6.87 302.81 6.86 302.72 6.86L302.37 6.86L302.37 6.86L301.36 6.86L301.36 7.13C301.36 7.31 301.46 7.36 301.63 7.38C301.71 7.38 301.80 7.38 302.37 7.41L302.37 13.26C301.80 13.29 301.71 13.29 301.63 13.29C301.46 13.30 301.36 13.36 301.36 13.54L301.36 13.82L302.37 13.82L303.03 13.82L303.03 13.82L304.04 13.82L304.04 13.54C304.04 13.36 303.94 13.30 303.77 13.29C303.69 13.29 303.60 13.29 303.03 13.26L303.03 9.30C303.24 8.68 303.52 8.20 303.86 7.88C304.19 7.56 304.63 7.39 305.16 7.39C305.30 7.39 305.42 7.41 305.54 7.42C305.65 7.43 305.76 7.45 305.83 7.48C305.91 7.50 305.96 7.53 306.01 7.55C306.07 7.56 306.11 7.57 306.14 7.57C306.22 7.57 306.26 7.53 306.28 7.46L306.36 7.00C306.21 6.92 306.04 6.85 305.86 6.80ZM317.31 6.73C316.82 6.73 316.37 6.83 315.98 7.00C315.59 7.17 315.27 7.41 315 7.71C314.73 8.02 314.52 8.39 314.38 8.81C314.24 9.23 314.16 9.69 314.16 10.19C314.16 10.78 314.24 11.31 314.40 11.77C314.55 12.24 314.76 12.61 315.04 12.94C315.32 13.26 315.66 13.50 316.05 13.66C316.44 13.83 316.88 13.90 317.35 13.90C317.62 13.90 317.88 13.89 318.14 13.83C318.39 13.78 318.64 13.71 318.86 13.62C319.09 13.54 319.30 13.44 319.48 13.31C319.66 13.19 319.82 13.06 319.93 12.92L319.75 12.70C319.72 12.66 319.66 12.63 319.61 12.63C319.56 12.63 319.48 12.66 319.38 12.74C319.28 12.82 319.14 12.91 318.96 13.01C318.79 13.10 318.57 13.17 318.32 13.26C318.07 13.34 317.76 13.38 317.41 13.38C317.02 13.38 316.67 13.31 316.34 13.17C316.02 13.03 315.76 12.84 315.53 12.57C315.31 12.31 315.14 11.97 315.01 11.58C314.89 11.19 314.83 10.71 314.83 10.19L314.83 10.07L319.86 10.07C319.93 10.07 319.97 10.05 320.00 10.01C320.03 9.97 320.05 9.90 320.05 9.80C320.05 9.31 319.98 8.88 319.84 8.50C319.70 8.12 319.52 7.78 319.27 7.53C319.03 7.28 318.74 7.08 318.40 6.94C318.07 6.80 317.70 6.73 317.31 6.73ZM317.32 7.24C317.65 7.24 317.93 7.29 318.19 7.41C318.46 7.52 318.68 7.67 318.86 7.88C319.05 8.09 319.20 8.33 319.30 8.62C319.40 8.92 319.45 9.25 319.45 9.63L314.86 9.63C314.90 9.27 314.99 8.93 315.11 8.64C315.24 8.34 315.41 8.09 315.62 7.88C315.83 7.67 316.08 7.52 316.36 7.41C316.64 7.29 316.96 7.24 317.32 7.24ZM334.88 13.54C334.88 13.38 334.80 13.30 334.61 13.29L334.54 13.29L334.45 13.29C334.40 13.29 334.33 13.27 334.25 13.27L333.94 13.27L333.94 3.63L333.28 3.63L332.28 3.63L332.28 3.91C332.28 4.06 332.37 4.14 332.56 4.16L332.63 4.16C332.65 4.16 332.68 4.17 332.72 4.17L332.95 4.17C333.05 4.17 333.16 4.19 333.28 4.19L333.28 7.76C333.03 7.42 332.74 7.17 332.39 7.00C332.04 6.82 331.63 6.73 331.16 6.73C330.67 6.73 330.23 6.83 329.85 7.01C329.48 7.20 329.17 7.46 328.90 7.78C328.64 8.11 328.45 8.50 328.31 8.93C328.17 9.37 328.12 9.84 328.12 10.35C328.12 11.54 328.36 12.43 328.83 13.02C329.31 13.61 329.98 13.90 330.83 13.90C331.35 13.90 331.81 13.79 332.23 13.54C332.65 13.29 333.00 12.95 333.31 12.53L333.38 13.64C333.40 13.76 333.47 13.82 333.58 13.82L333.94 13.82L334.88 13.82L334.88 13.61ZM333.28 12.01C332.99 12.43 332.65 12.77 332.28 13.01C331.90 13.24 331.49 13.37 331.03 13.37C330.32 13.37 329.76 13.13 329.38 12.64C329 12.15 328.80 11.38 328.80 10.35C328.80 9.88 328.85 9.48 328.96 9.10C329.07 8.72 329.22 8.39 329.43 8.12C329.64 7.85 329.90 7.63 330.20 7.48C330.51 7.32 330.88 7.25 331.28 7.25C331.69 7.25 332.07 7.34 332.39 7.50C332.71 7.67 333.02 7.95 333.28 8.34Z"></path></g></svg>