<svg data-v-fde0c5aa="" xmlns="http://www.w3.org/2000/svg" viewBox="0 0 300 300" class="font"><!----><defs data-v-fde0c5aa=""><!----></defs><rect data-v-fde0c5aa="" fill="#106989" x="0" y="0" width="300px" height="300px" class="logo-background-square"></rect><defs data-v-fde0c5aa=""><!----></defs><g data-v-fde0c5aa="" id="9a8c3160-8815-4047-8cf7-2d167a5d87bd" fill="#E5D5E4" transform="matrix(7.203667555492824,0,0,7.203667555492824,30.85134234192317,88.6967908889438)"><path d="M1.27 12.84L2.10 4.03L5.07 4.03Q6.31 4.03 6.96 4.72L6.96 4.72Q7.53 5.33 7.45 6.22L7.45 6.22Q7.28 8.02 5.74 8.41L5.74 8.41Q6.47 8.55 6.86 9.11L6.86 9.11Q7.49 10.04 6.97 11.31L6.97 11.31Q6.61 12.22 5.56 12.63L5.56 12.63Q5.01 12.84 4.24 12.84L4.24 12.84L1.27 12.84ZM2.35 11.87L4.31 11.87Q5.98 11.87 6.13 10.39L6.13 10.39Q6.20 9.72 5.81 9.32Q5.42 8.92 4.59 8.92L4.59 8.92L2.63 8.92L2.35 11.87ZM3.00 4.98L2.72 7.97L4.66 7.97Q5.39 7.97 5.86 7.57Q6.33 7.17 6.40 6.47Q6.47 5.77 6.08 5.38Q5.70 4.98 4.94 4.98L4.94 4.98L3.00 4.98ZM12.89 9.18L12.89 9.18L14.83 12.84L13.55 12.84L11.83 9.24L10.44 9.24L10.11 12.84L9.11 12.84L9.94 4.03L12.70 4.03Q14.04 4.03 14.70 4.76L14.70 4.76Q15.32 5.46 15.22 6.55L15.22 6.55Q14.99 8.82 12.89 9.18ZM10.51 8.47L12.19 8.47Q13.09 8.47 13.60 7.99Q14.11 7.50 14.18 6.71Q14.25 5.92 13.85 5.45Q13.44 4.98 12.60 4.98L12.60 4.98L10.84 4.98L10.51 8.47ZM17.50 4.03L18.49 4.03L17.95 9.66Q17.84 10.89 18.33 11.44Q18.83 11.98 19.75 11.98Q20.66 11.98 21.27 11.44Q21.87 10.89 21.98 9.66L21.98 9.66L22.53 4.03L23.52 4.03L22.97 9.66Q22.82 11.31 21.92 12.15Q21.03 12.99 19.65 12.99Q18.27 12.99 17.54 12.15Q16.80 11.31 16.95 9.66L16.95 9.66L17.50 4.03ZM25.91 4.03L26.91 4.03L26.53 7.91L30.42 7.91L30.80 4.03L31.81 4.03L30.97 12.84L29.97 12.84L30.34 8.86L26.45 8.86L26.08 12.84L25.09 12.84L25.91 4.03Z"></path></g><!----><!----></svg>